<?xml version="1.0" encoding="UTF-8"?>
<!-- Generated by Pixelmator Pro 3.7.1 -->
<svg width="2300" height="2300" viewBox="0 0 2300 2300" xmlns="http://www.w3.org/2000/svg">
    <path id="path1" fill="#ffffff" fill-rule="evenodd" stroke="none" d="M 2169.75708 1273.707397 C 2082.986328 1435.051758 1959.814697 1592.116455 1800.239746 1744.902832 C 1640.756348 1897.699951 1451.88208 2043.705688 1233.619141 2182.920898 C 1220.223145 2191.470215 1206.115234 2198.850586 1191.452637 2204.979248 C 1165.430908 2218.340332 1134.569092 2218.340332 1108.547363 2204.979248 C 1093.884766 2198.850586 1079.776855 2191.470215 1066.380859 2182.920898 C 848.148438 2043.693726 659.267578 1897.687988 499.74292 1744.902832 C 340.21582 1592.116455 217.04187 1435.051758 130.216797 1273.707397 C 43.415771 1112.370728 0 944.232666 0 779.5177 C 0 642.959229 28.581055 527.005981 85.715088 421.457642 C 139.349243 319.653564 219.24231 234.056396 317.106201 173.547607 C 414.637207 113.417725 527.301025 82.374756 641.860352 84.066162 C 755.30127 84.066162 858.310303 112.998535 943.981934 171.086914 C 1030.09082 228.040771 1100.847168 305.330322 1150 396.127686 C 1199.152832 305.330322 1269.90918 228.040771 1356.018066 171.086914 C 1441.689697 112.998535 1544.744385 84.066162 1658.139648 84.066162 C 1772.703369 82.367188 1885.371582 113.411133 1982.904785 173.547607 C 2080.76001 234.048828 2160.637695 319.64917 2214.239258 421.457642 C 2271.384033 527.005981 2300 642.959229 2300 779.5177 C 2300 944.232666 2256.584229 1112.370728 2169.75708 1273.707397 Z"/>
</svg>
